<svg xmlns="http://www.w3.org/2000/svg" xmlns:xlink="http://www.w3.org/1999/xlink" width="500" zoomAndPan="magnify" viewBox="0 0 375 374.999991" height="500" preserveAspectRatio="xMidYMid meet" version="1.0"><defs><g/><clipPath id="78c5a55eb7"><path d="M 67.625 95.292969 L 307.367188 95.292969 L 307.367188 191.292969 L 67.625 191.292969 Z M 67.625 95.292969 " clip-rule="nonzero"/></clipPath></defs><g clip-path="url(#78c5a55eb7)"><path fill="#f3f3f3" d="M 293.582031 161.246094 L 299.144531 161.363281 C 299.144531 161.363281 298.714844 163.835938 297.777344 164.84375 C 296.84375 165.824219 293.582031 165.945312 293.582031 165.945312 Z M 152.402344 174.339844 C 150.171875 174.339844 148.351562 177.144531 148.351562 180.597656 C 148.351562 184.050781 150.171875 186.859375 152.402344 186.859375 C 154.632812 186.859375 156.457031 184.050781 156.457031 180.597656 C 156.457031 177.144531 154.65625 174.339844 152.402344 174.339844 Z M 98.757812 178.007812 C 100.507812 178.007812 101.898438 180.191406 101.898438 182.875 C 101.898438 185.5625 100.484375 187.746094 98.757812 187.746094 C 97.007812 187.746094 95.613281 185.5625 95.613281 182.875 C 95.613281 180.191406 97.03125 178.007812 98.757812 178.007812 Z M 166.289062 173.261719 C 168.664062 173.261719 170.605469 176.234375 170.605469 179.925781 C 170.605469 183.597656 168.664062 186.59375 166.289062 186.59375 C 163.914062 186.59375 161.972656 183.621094 161.972656 179.925781 C 161.996094 176.257812 163.914062 173.261719 166.289062 173.261719 Z M 245.332031 168.917969 C 248.304688 168.917969 250.703125 172.636719 250.703125 177.21875 C 250.703125 181.796875 248.304688 185.515625 245.332031 185.515625 C 242.355469 185.515625 239.960938 181.796875 239.960938 177.21875 C 239.960938 172.636719 242.355469 168.917969 245.332031 168.917969 Z M 88.613281 178.800781 C 90.242188 178.800781 91.5625 180.839844 91.5625 183.378906 C 91.5625 185.898438 90.242188 187.960938 88.613281 187.960938 C 86.980469 187.960938 85.664062 185.921875 85.664062 183.378906 C 85.664062 180.839844 86.980469 178.800781 88.613281 178.800781 Z M 266.84375 167.9375 L 258.808594 168.054688 C 258.808594 168.054688 256.507812 162.730469 254.15625 159.828125 C 251.804688 156.929688 249.023438 155.632812 249.023438 155.632812 C 249.023438 155.632812 256.746094 155.632812 261.160156 157.359375 C 265.546875 159.085938 267.035156 160.527344 267.035156 160.527344 L 258.496094 160.957031 C 258.496094 160.957031 258.425781 163.980469 260.175781 165.464844 C 261.902344 166.953125 266.84375 167.9375 266.84375 167.9375 Z M 206.265625 108.75 C 195.066406 107.574219 184.296875 109.277344 184.296875 109.277344 C 184.296875 109.277344 191.085938 105.964844 206.265625 105.101562 Z M 184.296875 113.953125 L 188.976562 112.632812 L 184.296875 116.160156 Z M 184.296875 120.835938 L 196.097656 117.789062 L 184.296875 122.945312 Z M 184.296875 126.78125 L 205.089844 121.867188 L 184.296875 130.8125 Z M 184.296875 142.394531 L 192.09375 141.003906 L 184.296875 145.464844 Z M 184.296875 156.976562 L 184.296875 153.976562 L 200.175781 151.820312 Z M 229.382812 171.484375 C 229.382812 171.484375 229.144531 173.378906 229.144531 174.601562 C 229.144531 175.851562 229.289062 177.242188 229.289062 177.242188 L 190.558594 177.984375 L 227.367188 175.441406 C 227.367188 175.441406 227.25 174.027344 227.394531 172.925781 C 227.511719 171.820312 227.585938 171.675781 227.585938 171.675781 Z M 219.167969 127.359375 L 216 127.359375 C 215.378906 127.359375 214.898438 127.863281 214.898438 128.460938 L 214.898438 136.566406 C 214.898438 137.191406 215.402344 137.671875 216 137.671875 L 216.503906 137.671875 C 216.578125 138.292969 216.722656 138.964844 217.007812 139.515625 C 217.679688 140.882812 223.292969 141.746094 224.875 141.53125 C 226.457031 141.316406 225.835938 140.117188 225.835938 140.117188 C 225.835938 140.117188 222.308594 140.140625 219.957031 139.46875 C 218.6875 139.109375 218.039062 138.316406 217.703125 137.671875 L 219.191406 137.671875 C 219.816406 137.671875 220.292969 137.167969 220.292969 136.566406 L 220.292969 128.460938 C 220.269531 127.863281 219.765625 127.359375 219.167969 127.359375 Z M 184.035156 188.007812 C 181.972656 187.960938 179.910156 187.914062 177.871094 187.863281 C 178.949219 186.257812 179.71875 184.125 179.957031 181.726562 L 182.019531 181.726562 C 182.210938 184.148438 182.929688 186.355469 184.035156 188.007812 Z M 241.613281 188.96875 C 232.140625 188.800781 222.546875 188.679688 213.003906 188.511719 C 214.394531 186.808594 215.355469 184.339844 215.617188 181.511719 L 237.703125 181.414062 C 238.402344 184.601562 239.792969 187.289062 241.613281 188.96875 Z M 280.175781 189.925781 C 272.910156 189.664062 265.425781 189.449219 257.800781 189.28125 C 259.816406 187.601562 261.375 184.746094 262.070312 181.316406 L 275.667969 181.269531 C 276.339844 185.226562 278.019531 188.417969 280.175781 189.925781 Z M 87.316406 190.382812 C 80.699219 190.648438 74.105469 190.957031 67.460938 191.292969 C 147.390625 191.292969 227.34375 191.292969 307.273438 191.292969 C 302.238281 190.933594 296.988281 190.648438 291.566406 190.382812 C 294.109375 189.136719 296.125 185.660156 296.890625 181.199219 L 297.417969 181.199219 C 300.441406 181.269531 302.191406 180.453125 302.191406 179.902344 C 302.191406 179.351562 302.550781 171.726562 302.261719 166.28125 C 301.953125 160.835938 301.710938 161.246094 300.96875 160.644531 C 300.222656 160.070312 292.214844 156.976562 292.214844 156.976562 C 292.214844 156.976562 291.472656 145.535156 290.632812 145.609375 L 287.851562 145.65625 L 268.472656 145.945312 L 287.851562 147.71875 L 287.875 148.726562 L 268.59375 149.015625 L 287.921875 150.789062 L 287.945312 151.796875 L 268.785156 152.082031 L 287.992188 153.859375 L 288.019531 154.890625 L 268.976562 155.175781 L 288.089844 156.929688 L 288.113281 157.960938 L 269.167969 158.222656 L 288.160156 159.972656 L 288.1875 161.027344 L 269.359375 161.292969 L 288.257812 163.019531 L 288.28125 164.074219 L 269.550781 164.339844 L 288.328125 166.066406 L 288.355469 167.144531 L 269.746094 167.410156 L 288.425781 169.109375 L 288.449219 170.140625 L 259.457031 170.695312 L 259.527344 177.3125 L 297.683594 179.421875 L 255.859375 179.542969 C 255.859375 179.542969 256.097656 168.273438 253.628906 163.570312 C 251.132812 158.847656 243.820312 155.371094 238.425781 160.742188 C 233.003906 166.113281 233.722656 179.421875 233.722656 179.421875 L 184.226562 180.046875 L 182.234375 172.300781 L 229.382812 169.207031 C 229.382812 169.207031 229.625 167.289062 230.582031 164.410156 C 231.542969 161.53125 234.417969 159.085938 234.417969 159.085938 C 234.417969 159.085938 232.597656 159.375 231.109375 160.8125 C 229.625 162.277344 228.039062 164.984375 228.039062 164.984375 L 216.410156 165.707031 C 214.609375 164.984375 212.09375 163.667969 211.207031 161.652344 C 210.773438 160.667969 210.535156 159.664062 210.414062 158.75 L 211.636719 158.75 C 212.1875 158.75 212.621094 158.296875 212.621094 157.769531 L 212.621094 129.566406 C 212.621094 129.011719 212.164062 128.582031 211.636719 128.582031 L 210.4375 128.582031 C 210.511719 125.246094 210.726562 116.445312 210.917969 109.46875 C 221.757812 111.84375 227.058594 119.492188 227.058594 119.492188 L 251.804688 120.59375 C 244.011719 107.261719 225.113281 104.695312 211.039062 104.933594 C 211.085938 103.59375 211.109375 102.464844 211.15625 101.601562 C 211.398438 95.292969 207.945312 95.488281 206.816406 95.414062 C 205.714844 95.34375 203.964844 97.140625 204.273438 98.195312 C 204.585938 99.25 207.992188 98.699219 208.183594 103.136719 C 208.328125 106.804688 208.617188 123.042969 208.710938 128.558594 L 206.695312 128.558594 C 206.144531 128.558594 205.714844 129.011719 205.714844 129.539062 L 205.714844 157.769531 C 205.714844 158.320312 206.167969 158.75 206.695312 158.75 L 208.421875 158.75 C 208.6875 160.527344 209.046875 162.421875 209.550781 163.210938 C 210.101562 164.074219 211.347656 165.128906 212.453125 165.945312 L 178.351562 168.078125 L 178.351562 165.539062 L 180.460938 164.121094 L 180.460938 112.152344 L 171.539062 111.386719 L 79.644531 139.710938 L 171.539062 115.246094 L 171.539062 117.574219 L 118.109375 132.753906 L 171.5625 121.074219 L 171.5625 124.144531 L 129.140625 135.128906 L 171.5625 127.527344 L 171.5625 129.804688 L 91.585938 148.75 L 171.5625 132.347656 L 171.5625 144.699219 L 91.683594 158.992188 L 171.5625 147.550781 L 171.5625 155.707031 L 84.273438 167.601562 L 171.5625 159.039062 L 171.5625 163.117188 L 77.148438 173.285156 L 86.574219 176.90625 C 85.160156 178.222656 84.222656 180.621094 84.222656 183.332031 C 84.199219 186.570312 85.496094 189.304688 87.316406 190.382812 Z M 96.910156 190.023438 L 95.398438 190.070312 C 95.664062 189.855469 95.925781 189.617188 96.167969 189.328125 C 96.40625 189.589844 96.644531 189.832031 96.910156 190.023438 Z M 111.273438 189.566406 C 109.644531 189.617188 107.988281 189.664062 106.359375 189.710938 C 107.628906 188.488281 108.566406 186.449219 108.78125 184.050781 L 109.1875 184.050781 C 109.308594 186.332031 110.101562 188.320312 111.273438 189.566406 Z M 148.804688 188.558594 C 143.195312 188.703125 137.558594 188.847656 131.945312 188.992188 C 133.074219 187.527344 133.792969 185.324219 133.792969 182.875 C 133.792969 179.496094 132.449219 176.617188 130.53125 175.441406 L 147.511719 174.867188 C 146.792969 176.496094 146.382812 178.488281 146.382812 180.597656 C 146.359375 183.8125 147.320312 186.664062 148.804688 188.558594 Z M 225.234375 121.960938 C 236.386719 122.539062 257.992188 122.5625 258.664062 124.550781 L 261.0625 131.292969 L 241.132812 130.789062 L 253.941406 133.210938 L 239.839844 133.761719 L 256.984375 135.871094 L 242.621094 137.285156 L 259.023438 139.828125 C 259.023438 139.828125 260.605469 139.828125 263.078125 139.902344 C 263.4375 139.828125 263.773438 139.757812 264.085938 139.660156 C 265.234375 139.324219 265.835938 138.628906 266.121094 138.03125 L 264.78125 138.03125 C 264.226562 138.03125 263.773438 137.574219 263.773438 137.023438 L 263.773438 129.707031 C 263.773438 129.15625 264.226562 128.703125 264.78125 128.703125 L 267.632812 128.703125 C 268.183594 128.703125 268.640625 129.15625 268.640625 129.707031 L 268.640625 137.023438 C 268.640625 137.574219 268.183594 138.03125 267.632812 138.03125 L 267.179688 138.03125 C 267.105469 138.582031 266.984375 139.207031 266.722656 139.710938 C 266.675781 139.804688 266.578125 139.925781 266.484375 140.019531 C 269.648438 140.164062 273.484375 140.378906 277.273438 140.742188 C 286.242188 141.605469 287.730469 143.28125 287.730469 143.28125 C 287.730469 143.28125 268.183594 141.050781 258.832031 140.933594 C 249.480469 140.8125 229.382812 141.292969 229.382812 141.292969 L 226.53125 128.171875 L 259.074219 129.707031 C 259.074219 129.707031 258.257812 126.976562 257.035156 125.75 C 255.785156 124.503906 225.234375 121.960938 225.234375 121.960938 Z M 225.234375 121.960938 " fill-opacity="1" fill-rule="evenodd"/></g><g fill="#f3f3f3" fill-opacity="1"><g transform="translate(43.6392, 229.34919)"><g><path d="M 13.53125 -25.3125 C 16.050781 -25.3125 18.15625 -24.660156 19.84375 -23.359375 C 21.539062 -22.066406 22.710938 -20.296875 23.359375 -18.046875 L 20.09375 -17.28125 C 19.5625 -18.945312 18.757812 -20.234375 17.6875 -21.140625 C 16.625 -22.046875 15.210938 -22.5 13.453125 -22.5 C 10.859375 -22.5 8.832031 -21.640625 7.375 -19.921875 C 5.914062 -18.203125 5.1875 -15.769531 5.1875 -12.625 C 5.1875 -9.332031 5.894531 -6.804688 7.3125 -5.046875 C 8.738281 -3.285156 10.726562 -2.40625 13.28125 -2.40625 C 15.09375 -2.40625 16.632812 -2.941406 17.90625 -4.015625 C 19.175781 -5.085938 20.035156 -6.65625 20.484375 -8.71875 L 23.78125 -7.890625 C 23.082031 -5.273438 21.84375 -3.234375 20.0625 -1.765625 C 18.28125 -0.304688 16.054688 0.421875 13.390625 0.421875 C 11.554688 0.421875 9.988281 0.175781 8.6875 -0.3125 C 7.394531 -0.800781 6.296875 -1.519531 5.390625 -2.46875 C 4.140625 -3.789062 3.222656 -5.332031 2.640625 -7.09375 C 2.054688 -8.851562 1.765625 -10.695312 1.765625 -12.625 C 1.765625 -15.195312 2.257812 -17.4375 3.25 -19.34375 C 4.238281 -21.257812 5.617188 -22.734375 7.390625 -23.765625 C 9.160156 -24.796875 11.207031 -25.3125 13.53125 -25.3125 Z M 13.53125 -25.3125 "/></g></g></g><g fill="#f3f3f3" fill-opacity="1"><g transform="translate(69.781558, 229.34919)"><g><path d="M 23.265625 0 L 19.5 0 L 16.578125 -7.578125 L 6.1875 -7.578125 L 3.484375 0 L -0.03125 0 L 9.53125 -24.890625 L 13.078125 -24.890625 Z M 9.875 -17.515625 L 7.15625 -10.21875 L 15.578125 -10.21875 L 12.515625 -18.421875 C 12.140625 -19.398438 11.710938 -20.6875 11.234375 -22.28125 C 11.234375 -22.164062 11.09375 -21.582031 10.8125 -20.53125 C 10.53125 -19.476562 10.21875 -18.472656 9.875 -17.515625 Z M 9.875 -17.515625 "/></g></g></g><g fill="#f3f3f3" fill-opacity="1"><g transform="translate(94.011921, 229.34919)"><g><path d="M 20.234375 -23.390625 C 21.085938 -22.722656 21.710938 -21.921875 22.109375 -20.984375 C 22.503906 -20.046875 22.703125 -19.078125 22.703125 -18.078125 C 22.703125 -16.265625 22.117188 -14.773438 20.953125 -13.609375 C 19.796875 -12.441406 18.035156 -11.679688 15.671875 -11.328125 C 16.578125 -10.910156 17.390625 -10.347656 18.109375 -9.640625 C 18.828125 -8.941406 19.59375 -7.960938 20.40625 -6.703125 L 24.71875 0 L 20.578125 0 L 17.390625 -5 C 16.273438 -6.738281 15.382812 -8.007812 14.71875 -8.8125 C 14.0625 -9.613281 13.382812 -10.179688 12.6875 -10.515625 C 11.988281 -10.847656 11.109375 -11.015625 10.046875 -11.015625 L 6.078125 -11.015625 L 6.078125 0 L 2.78125 0 L 2.78125 -24.890625 L 14.21875 -24.890625 C 15.675781 -24.890625 16.863281 -24.78125 17.78125 -24.5625 C 18.695312 -24.34375 19.515625 -23.953125 20.234375 -23.390625 Z M 17.828125 -15.015625 C 18.335938 -15.410156 18.707031 -15.878906 18.9375 -16.421875 C 19.175781 -16.972656 19.296875 -17.523438 19.296875 -18.078125 C 19.296875 -19.535156 18.773438 -20.578125 17.734375 -21.203125 C 16.691406 -21.828125 15.472656 -22.140625 14.078125 -22.140625 L 6.078125 -22.140625 L 6.078125 -13.9375 L 13.53125 -13.9375 C 14.6875 -13.9375 15.570312 -14.023438 16.1875 -14.203125 C 16.800781 -14.378906 17.347656 -14.648438 17.828125 -15.015625 Z M 17.828125 -15.015625 "/></g></g></g><g fill="#f3f3f3" fill-opacity="1"><g transform="translate(120.154279, 229.34919)"><g><path d="M 14.28125 -25.3125 C 19.800781 -25.3125 23.1875 -22.851562 24.4375 -17.9375 L 21.484375 -17.109375 C 21.460938 -17.171875 21.382812 -17.421875 21.25 -17.859375 C 21.125 -18.304688 20.925781 -18.78125 20.65625 -19.28125 C 20.394531 -19.78125 20.09375 -20.191406 19.75 -20.515625 C 18.332031 -21.835938 16.535156 -22.5 14.359375 -22.5 C 11.460938 -22.5 9.210938 -21.609375 7.609375 -19.828125 C 6.015625 -18.054688 5.21875 -15.617188 5.21875 -12.515625 C 5.21875 -9.242188 6.0625 -6.757812 7.75 -5.0625 C 9.445312 -3.375 11.773438 -2.53125 14.734375 -2.53125 C 15.898438 -2.53125 17.164062 -2.800781 18.53125 -3.34375 C 19.894531 -3.894531 20.9375 -4.484375 21.65625 -5.109375 L 21.65625 -9.765625 L 14.28125 -9.765625 L 14.28125 -12.6875 L 24.828125 -12.6875 L 24.828125 -3.484375 C 23.179688 -2.179688 21.515625 -1.203125 19.828125 -0.546875 C 18.148438 0.0976562 16.375 0.421875 14.5 0.421875 C 12 0.421875 9.785156 -0.101562 7.859375 -1.15625 C 5.929688 -2.21875 4.441406 -3.707031 3.390625 -5.625 C 2.335938 -7.550781 1.8125 -9.789062 1.8125 -12.34375 C 1.8125 -14.863281 2.304688 -17.101562 3.296875 -19.0625 C 4.296875 -21.019531 5.734375 -22.550781 7.609375 -23.65625 C 9.492188 -24.757812 11.71875 -25.3125 14.28125 -25.3125 Z M 14.28125 -25.3125 "/></g></g></g><g fill="#f3f3f3" fill-opacity="1"><g transform="translate(148.243384, 229.34919)"><g><path d="M 13.109375 -25.3125 C 15.585938 -25.3125 17.757812 -24.773438 19.625 -23.703125 C 21.488281 -22.640625 22.925781 -21.132812 23.9375 -19.1875 C 24.945312 -17.238281 25.453125 -14.976562 25.453125 -12.40625 C 25.453125 -9.863281 24.9375 -7.617188 23.90625 -5.671875 C 22.875 -3.722656 21.460938 -2.21875 19.671875 -1.15625 C 17.890625 -0.101562 15.898438 0.421875 13.703125 0.421875 C 11.285156 0.421875 9.164062 -0.132812 7.34375 -1.25 C 5.53125 -2.363281 4.125 -3.875 3.125 -5.78125 C 2.132812 -7.695312 1.640625 -9.816406 1.640625 -12.140625 C 1.640625 -14.773438 2.132812 -17.085938 3.125 -19.078125 C 4.125 -21.078125 5.492188 -22.613281 7.234375 -23.6875 C 8.972656 -24.769531 10.929688 -25.3125 13.109375 -25.3125 Z M 5.046875 -12.0625 C 5.046875 -10.132812 5.40625 -8.441406 6.125 -6.984375 C 6.84375 -5.523438 7.84375 -4.394531 9.125 -3.59375 C 10.414062 -2.800781 11.882812 -2.40625 13.53125 -2.40625 C 15.21875 -2.40625 16.703125 -2.800781 17.984375 -3.59375 C 19.273438 -4.394531 20.273438 -5.546875 20.984375 -7.046875 C 21.691406 -8.554688 22.046875 -10.34375 22.046875 -12.40625 C 22.046875 -14.445312 21.691406 -16.234375 20.984375 -17.765625 C 20.273438 -19.296875 19.28125 -20.46875 18 -21.28125 C 16.726562 -22.09375 15.28125 -22.5 13.65625 -22.5 C 10.925781 -22.5 8.804688 -21.582031 7.296875 -19.75 C 5.796875 -17.914062 5.046875 -15.351562 5.046875 -12.0625 Z M 5.046875 -12.0625 "/></g></g></g><g fill="#f3f3f3" fill-opacity="1"><g transform="translate(176.332489, 229.34919)"><g/></g></g><g fill="#f3f3f3" fill-opacity="1"><g transform="translate(187.039822, 229.34919)"><g><path d="M 20.75 -21.96875 L 6.046875 -21.96875 L 6.046875 -14.328125 L 19.8125 -14.328125 L 19.8125 -11.40625 L 6.046875 -11.40625 L 6.046875 -2.921875 L 21.3125 -2.921875 L 21.3125 0 L 2.75 0 L 2.75 -24.890625 L 20.75 -24.890625 Z M 20.75 -21.96875 "/></g></g></g><g fill="#f3f3f3" fill-opacity="1"><g transform="translate(211.270185, 229.34919)"><g><path d="M 5.21875 -24.890625 L 9.765625 -18.5 C 10.671875 -17.21875 11.21875 -16.40625 11.40625 -16.0625 C 11.59375 -15.71875 11.707031 -15.507812 11.75 -15.4375 C 12.070312 -15.96875 12.4375 -16.507812 12.84375 -17.0625 C 13.25 -17.625 13.476562 -17.941406 13.53125 -18.015625 L 18.734375 -24.890625 L 22.3125 -24.890625 L 13.5625 -13.171875 L 22.984375 0 L 18.90625 0 L 12.65625 -8.859375 C 12.375 -9.253906 12.015625 -9.8125 11.578125 -10.53125 C 10.972656 -9.5625 10.566406 -8.945312 10.359375 -8.6875 L 4.140625 0 L 0.171875 0 L 9.796875 -12.96875 L 1.328125 -24.890625 Z M 5.21875 -24.890625 "/></g></g></g><g fill="#f3f3f3" fill-opacity="1"><g transform="translate(235.500548, 229.34919)"><g><path d="M 19.15625 -23.265625 C 19.988281 -22.585938 20.613281 -21.765625 21.03125 -20.796875 C 21.445312 -19.835938 21.65625 -18.863281 21.65625 -17.875 C 21.65625 -15.113281 20.671875 -13.023438 18.703125 -11.609375 C 17.378906 -10.640625 15.351562 -10.15625 12.625 -10.15625 L 5.984375 -10.15625 L 5.984375 0 L 2.671875 0 L 2.671875 -24.890625 L 12.578125 -24.890625 C 14.179688 -24.890625 15.476562 -24.773438 16.46875 -24.546875 C 17.46875 -24.316406 18.363281 -23.890625 19.15625 -23.265625 Z M 18.25 -17.796875 C 18.25 -18.304688 18.125 -18.859375 17.875 -19.453125 C 17.632812 -20.046875 17.304688 -20.523438 16.890625 -20.890625 C 16.429688 -21.304688 15.898438 -21.585938 15.296875 -21.734375 C 14.691406 -21.890625 13.890625 -21.96875 12.890625 -21.96875 L 5.984375 -21.96875 L 5.984375 -13.078125 L 12.578125 -13.078125 C 14.503906 -13.078125 15.929688 -13.457031 16.859375 -14.21875 C 17.785156 -14.976562 18.25 -16.171875 18.25 -17.796875 Z M 18.25 -17.796875 "/></g></g></g><g fill="#f3f3f3" fill-opacity="1"><g transform="translate(259.730911, 229.34919)"><g><path d="M 20.75 -21.96875 L 6.046875 -21.96875 L 6.046875 -14.328125 L 19.8125 -14.328125 L 19.8125 -11.40625 L 6.046875 -11.40625 L 6.046875 -2.921875 L 21.3125 -2.921875 L 21.3125 0 L 2.75 0 L 2.75 -24.890625 L 20.75 -24.890625 Z M 20.75 -21.96875 "/></g></g></g><g fill="#f3f3f3" fill-opacity="1"><g transform="translate(283.961273, 229.34919)"><g><path d="M 20.234375 -23.390625 C 21.085938 -22.722656 21.710938 -21.921875 22.109375 -20.984375 C 22.503906 -20.046875 22.703125 -19.078125 22.703125 -18.078125 C 22.703125 -16.265625 22.117188 -14.773438 20.953125 -13.609375 C 19.796875 -12.441406 18.035156 -11.679688 15.671875 -11.328125 C 16.578125 -10.910156 17.390625 -10.347656 18.109375 -9.640625 C 18.828125 -8.941406 19.59375 -7.960938 20.40625 -6.703125 L 24.71875 0 L 20.578125 0 L 17.390625 -5 C 16.273438 -6.738281 15.382812 -8.007812 14.71875 -8.8125 C 14.0625 -9.613281 13.382812 -10.179688 12.6875 -10.515625 C 11.988281 -10.847656 11.109375 -11.015625 10.046875 -11.015625 L 6.078125 -11.015625 L 6.078125 0 L 2.78125 0 L 2.78125 -24.890625 L 14.21875 -24.890625 C 15.675781 -24.890625 16.863281 -24.78125 17.78125 -24.5625 C 18.695312 -24.34375 19.515625 -23.953125 20.234375 -23.390625 Z M 17.828125 -15.015625 C 18.335938 -15.410156 18.707031 -15.878906 18.9375 -16.421875 C 19.175781 -16.972656 19.296875 -17.523438 19.296875 -18.078125 C 19.296875 -19.535156 18.773438 -20.578125 17.734375 -21.203125 C 16.691406 -21.828125 15.472656 -22.140625 14.078125 -22.140625 L 6.078125 -22.140625 L 6.078125 -13.9375 L 13.53125 -13.9375 C 14.6875 -13.9375 15.570312 -14.023438 16.1875 -14.203125 C 16.800781 -14.378906 17.347656 -14.648438 17.828125 -15.015625 Z M 17.828125 -15.015625 "/></g></g></g><g fill="#f3f3f3" fill-opacity="1"><g transform="translate(310.103631, 229.34919)"><g><path d="M 20.515625 -21.96875 L 12.265625 -21.96875 L 12.265625 0 L 8.96875 0 L 8.96875 -21.96875 L 0.765625 -21.96875 L 0.765625 -24.890625 L 20.515625 -24.890625 Z M 20.515625 -21.96875 "/></g></g></g><g fill="#f3f3f3" fill-opacity="1"><g transform="translate(9.464061, 262.751624)"><g><path d="M 2.578125 -15.21875 L 3.71875 -13.390625 C 4.039062 -12.867188 4.4375 -12.273438 4.90625 -11.609375 C 5.925781 -10.078125 6.660156 -8.894531 7.109375 -8.0625 C 7.523438 -8.800781 8.078125 -9.691406 8.765625 -10.734375 L 11.71875 -15.21875 L 14.0625 -15.21875 L 8 -6.4375 L 8 0 L 5.96875 0 L 5.96875 -6.4375 L 0.109375 -15.21875 Z M 2.578125 -15.21875 "/></g></g></g><g fill="#f3f3f3" fill-opacity="1"><g transform="translate(27.324462, 262.751624)"><g><path d="M 8.015625 -15.484375 C 9.535156 -15.484375 10.863281 -15.15625 12 -14.5 C 13.144531 -13.851562 14.023438 -12.929688 14.640625 -11.734375 C 15.253906 -10.546875 15.5625 -9.164062 15.5625 -7.59375 C 15.5625 -6.03125 15.242188 -4.65625 14.609375 -3.46875 C 13.984375 -2.28125 13.125 -1.363281 12.03125 -0.71875 C 10.945312 -0.0703125 9.726562 0.25 8.375 0.25 C 6.90625 0.25 5.613281 -0.0859375 4.5 -0.765625 C 3.382812 -1.441406 2.519531 -2.363281 1.90625 -3.53125 C 1.300781 -4.707031 1 -6.003906 1 -7.421875 C 1 -9.035156 1.300781 -10.453125 1.90625 -11.671875 C 2.519531 -12.890625 3.359375 -13.828125 4.421875 -14.484375 C 5.484375 -15.148438 6.679688 -15.484375 8.015625 -15.484375 Z M 3.078125 -7.375 C 3.078125 -6.195312 3.296875 -5.160156 3.734375 -4.265625 C 4.179688 -3.378906 4.796875 -2.691406 5.578125 -2.203125 C 6.367188 -1.710938 7.265625 -1.46875 8.265625 -1.46875 C 9.304688 -1.46875 10.21875 -1.710938 11 -2.203125 C 11.789062 -2.691406 12.398438 -3.394531 12.828125 -4.3125 C 13.265625 -5.238281 13.484375 -6.332031 13.484375 -7.59375 C 13.484375 -8.84375 13.265625 -9.929688 12.828125 -10.859375 C 12.398438 -11.796875 11.796875 -12.515625 11.015625 -13.015625 C 10.234375 -13.515625 9.347656 -13.765625 8.359375 -13.765625 C 6.679688 -13.765625 5.378906 -13.203125 4.453125 -12.078125 C 3.535156 -10.960938 3.078125 -9.394531 3.078125 -7.375 Z M 3.078125 -7.375 "/></g></g></g><g fill="#f3f3f3" fill-opacity="1"><g transform="translate(47.544589, 262.751624)"><g><path d="M 3.703125 -6.234375 C 3.703125 -4.929688 3.84375 -3.988281 4.125 -3.40625 C 4.394531 -2.851562 4.8125 -2.40625 5.375 -2.0625 C 5.945312 -1.71875 6.679688 -1.546875 7.578125 -1.546875 C 8.804688 -1.546875 9.71875 -1.789062 10.3125 -2.28125 C 10.90625 -2.769531 11.269531 -3.328125 11.40625 -3.953125 C 11.550781 -4.585938 11.625 -5.335938 11.625 -6.203125 L 11.625 -15.21875 L 13.65625 -15.21875 L 13.65625 -6.25 C 13.65625 -5.488281 13.609375 -4.75 13.515625 -4.03125 C 13.421875 -3.3125 13.15625 -2.632812 12.71875 -2 C 12.238281 -1.300781 11.597656 -0.75 10.796875 -0.34375 C 10.003906 0.0507812 8.960938 0.25 7.671875 0.25 C 6.429688 0.25 5.421875 0.0664062 4.640625 -0.296875 C 3.867188 -0.660156 3.226562 -1.171875 2.71875 -1.828125 C 2.269531 -2.390625 1.984375 -3.050781 1.859375 -3.8125 C 1.742188 -4.582031 1.6875 -5.390625 1.6875 -6.234375 L 1.6875 -15.21875 L 3.703125 -15.21875 Z M 3.703125 -6.234375 "/></g></g></g><g fill="#f3f3f3" fill-opacity="1"><g transform="translate(66.574229, 262.751624)"><g><path d="M 12.375 -14.3125 C 12.894531 -13.894531 13.273438 -13.398438 13.515625 -12.828125 C 13.765625 -12.253906 13.890625 -11.664062 13.890625 -11.0625 C 13.890625 -9.957031 13.535156 -9.046875 12.828125 -8.328125 C 12.117188 -7.609375 11.039062 -7.144531 9.59375 -6.9375 C 10.144531 -6.675781 10.640625 -6.328125 11.078125 -5.890625 C 11.515625 -5.460938 11.984375 -4.867188 12.484375 -4.109375 L 15.125 0 L 12.59375 0 L 10.625 -3.0625 C 9.945312 -4.125 9.40625 -4.898438 9 -5.390625 C 8.601562 -5.878906 8.191406 -6.222656 7.765625 -6.421875 C 7.335938 -6.628906 6.796875 -6.734375 6.140625 -6.734375 L 3.71875 -6.734375 L 3.71875 0 L 1.703125 0 L 1.703125 -15.21875 L 8.703125 -15.21875 C 9.585938 -15.21875 10.3125 -15.148438 10.875 -15.015625 C 11.4375 -14.890625 11.9375 -14.65625 12.375 -14.3125 Z M 10.90625 -9.1875 C 11.21875 -9.425781 11.441406 -9.710938 11.578125 -10.046875 C 11.722656 -10.378906 11.796875 -10.71875 11.796875 -11.0625 C 11.796875 -11.945312 11.476562 -12.582031 10.84375 -12.96875 C 10.207031 -13.351562 9.460938 -13.546875 8.609375 -13.546875 L 3.71875 -13.546875 L 3.71875 -8.53125 L 8.265625 -8.53125 C 8.972656 -8.53125 9.515625 -8.582031 9.890625 -8.6875 C 10.273438 -8.789062 10.613281 -8.957031 10.90625 -9.1875 Z M 10.90625 -9.1875 "/></g></g></g><g fill="#f3f3f3" fill-opacity="1"><g transform="translate(85.603868, 262.751624)"><g/></g></g><g fill="#f3f3f3" fill-opacity="1"><g transform="translate(95.194583, 262.751624)"><g><path d="M 8.265625 -15.484375 C 9.816406 -15.484375 11.109375 -15.082031 12.140625 -14.28125 C 13.171875 -13.488281 13.890625 -12.40625 14.296875 -11.03125 L 12.296875 -10.5625 C 11.960938 -11.582031 11.46875 -12.367188 10.8125 -12.921875 C 10.164062 -13.484375 9.304688 -13.765625 8.234375 -13.765625 C 6.640625 -13.765625 5.394531 -13.238281 4.5 -12.1875 C 3.613281 -11.132812 3.171875 -9.644531 3.171875 -7.71875 C 3.171875 -5.707031 3.601562 -4.160156 4.46875 -3.078125 C 5.34375 -2.003906 6.5625 -1.46875 8.125 -1.46875 C 9.226562 -1.46875 10.171875 -1.796875 10.953125 -2.453125 C 11.734375 -3.109375 12.257812 -4.070312 12.53125 -5.34375 L 14.546875 -4.828125 C 14.117188 -3.222656 13.359375 -1.972656 12.265625 -1.078125 C 11.171875 -0.191406 9.8125 0.25 8.1875 0.25 C 7.0625 0.25 6.101562 0.101562 5.3125 -0.1875 C 4.519531 -0.488281 3.847656 -0.929688 3.296875 -1.515625 C 2.523438 -2.316406 1.960938 -3.253906 1.609375 -4.328125 C 1.253906 -5.410156 1.078125 -6.539062 1.078125 -7.71875 C 1.078125 -9.289062 1.378906 -10.660156 1.984375 -11.828125 C 2.585938 -13.003906 3.429688 -13.90625 4.515625 -14.53125 C 5.597656 -15.164062 6.847656 -15.484375 8.265625 -15.484375 Z M 8.265625 -15.484375 "/></g></g></g><g fill="#f3f3f3" fill-opacity="1"><g transform="translate(114.224223, 262.751624)"><g><path d="M 14.234375 0 L 11.9375 0 L 10.140625 -4.640625 L 3.78125 -4.640625 L 2.125 0 L -0.015625 0 L 5.828125 -15.21875 L 8 -15.21875 Z M 6.046875 -10.71875 L 4.375 -6.25 L 9.53125 -6.25 L 7.65625 -11.265625 C 7.425781 -11.859375 7.164062 -12.644531 6.875 -13.625 C 6.875 -13.5625 6.785156 -13.207031 6.609375 -12.5625 C 6.441406 -11.914062 6.253906 -11.300781 6.046875 -10.71875 Z M 6.046875 -10.71875 "/></g></g></g><g fill="#f3f3f3" fill-opacity="1"><g transform="translate(132.084625, 262.751624)"><g><path d="M 12.375 -14.3125 C 12.894531 -13.894531 13.273438 -13.398438 13.515625 -12.828125 C 13.765625 -12.253906 13.890625 -11.664062 13.890625 -11.0625 C 13.890625 -9.957031 13.535156 -9.046875 12.828125 -8.328125 C 12.117188 -7.609375 11.039062 -7.144531 9.59375 -6.9375 C 10.144531 -6.675781 10.640625 -6.328125 11.078125 -5.890625 C 11.515625 -5.460938 11.984375 -4.867188 12.484375 -4.109375 L 15.125 0 L 12.59375 0 L 10.625 -3.0625 C 9.945312 -4.125 9.40625 -4.898438 9 -5.390625 C 8.601562 -5.878906 8.191406 -6.222656 7.765625 -6.421875 C 7.335938 -6.628906 6.796875 -6.734375 6.140625 -6.734375 L 3.71875 -6.734375 L 3.71875 0 L 1.703125 0 L 1.703125 -15.21875 L 8.703125 -15.21875 C 9.585938 -15.21875 10.3125 -15.148438 10.875 -15.015625 C 11.4375 -14.890625 11.9375 -14.65625 12.375 -14.3125 Z M 10.90625 -9.1875 C 11.21875 -9.425781 11.441406 -9.710938 11.578125 -10.046875 C 11.722656 -10.378906 11.796875 -10.71875 11.796875 -11.0625 C 11.796875 -11.945312 11.476562 -12.582031 10.84375 -12.96875 C 10.207031 -13.351562 9.460938 -13.546875 8.609375 -13.546875 L 3.71875 -13.546875 L 3.71875 -8.53125 L 8.265625 -8.53125 C 8.972656 -8.53125 9.515625 -8.582031 9.890625 -8.6875 C 10.273438 -8.789062 10.613281 -8.957031 10.90625 -9.1875 Z M 10.90625 -9.1875 "/></g></g></g><g fill="#f3f3f3" fill-opacity="1"><g transform="translate(151.114265, 262.751624)"><g><path d="M 8.734375 -15.484375 C 12.109375 -15.484375 14.179688 -13.976562 14.953125 -10.96875 L 13.140625 -10.46875 C 13.128906 -10.507812 13.082031 -10.660156 13 -10.921875 C 12.925781 -11.191406 12.804688 -11.476562 12.640625 -11.78125 C 12.472656 -12.09375 12.285156 -12.347656 12.078125 -12.546875 C 11.210938 -13.359375 10.113281 -13.765625 8.78125 -13.765625 C 7.007812 -13.765625 5.632812 -13.21875 4.65625 -12.125 C 3.675781 -11.039062 3.1875 -9.550781 3.1875 -7.65625 C 3.1875 -5.65625 3.703125 -4.132812 4.734375 -3.09375 C 5.773438 -2.0625 7.203125 -1.546875 9.015625 -1.546875 C 9.722656 -1.546875 10.492188 -1.710938 11.328125 -2.046875 C 12.171875 -2.378906 12.8125 -2.738281 13.25 -3.125 L 13.25 -5.96875 L 8.734375 -5.96875 L 8.734375 -7.765625 L 15.1875 -7.765625 L 15.1875 -2.125 C 14.175781 -1.332031 13.15625 -0.738281 12.125 -0.34375 C 11.101562 0.0507812 10.019531 0.25 8.875 0.25 C 7.34375 0.25 5.988281 -0.0703125 4.8125 -0.71875 C 3.632812 -1.363281 2.722656 -2.269531 2.078125 -3.4375 C 1.429688 -4.613281 1.109375 -5.984375 1.109375 -7.546875 C 1.109375 -9.097656 1.410156 -10.472656 2.015625 -11.671875 C 2.628906 -12.867188 3.507812 -13.800781 4.65625 -14.46875 C 5.800781 -15.144531 7.160156 -15.484375 8.734375 -15.484375 Z M 8.734375 -15.484375 "/></g></g></g><g fill="#f3f3f3" fill-opacity="1"><g transform="translate(171.334387, 262.751624)"><g><path d="M 8.015625 -15.484375 C 9.535156 -15.484375 10.863281 -15.15625 12 -14.5 C 13.144531 -13.851562 14.023438 -12.929688 14.640625 -11.734375 C 15.253906 -10.546875 15.5625 -9.164062 15.5625 -7.59375 C 15.5625 -6.03125 15.242188 -4.65625 14.609375 -3.46875 C 13.984375 -2.28125 13.125 -1.363281 12.03125 -0.71875 C 10.945312 -0.0703125 9.726562 0.25 8.375 0.25 C 6.90625 0.25 5.613281 -0.0859375 4.5 -0.765625 C 3.382812 -1.441406 2.519531 -2.363281 1.90625 -3.53125 C 1.300781 -4.707031 1 -6.003906 1 -7.421875 C 1 -9.035156 1.300781 -10.453125 1.90625 -11.671875 C 2.519531 -12.890625 3.359375 -13.828125 4.421875 -14.484375 C 5.484375 -15.148438 6.679688 -15.484375 8.015625 -15.484375 Z M 3.078125 -7.375 C 3.078125 -6.195312 3.296875 -5.160156 3.734375 -4.265625 C 4.179688 -3.378906 4.796875 -2.691406 5.578125 -2.203125 C 6.367188 -1.710938 7.265625 -1.46875 8.265625 -1.46875 C 9.304688 -1.46875 10.21875 -1.710938 11 -2.203125 C 11.789062 -2.691406 12.398438 -3.394531 12.828125 -4.3125 C 13.265625 -5.238281 13.484375 -6.332031 13.484375 -7.59375 C 13.484375 -8.84375 13.265625 -9.929688 12.828125 -10.859375 C 12.398438 -11.796875 11.796875 -12.515625 11.015625 -13.015625 C 10.234375 -13.515625 9.347656 -13.765625 8.359375 -13.765625 C 6.679688 -13.765625 5.378906 -13.203125 4.453125 -12.078125 C 3.535156 -10.960938 3.078125 -9.394531 3.078125 -7.375 Z M 3.078125 -7.375 "/></g></g></g><g fill="#f3f3f3" fill-opacity="1"><g transform="translate(191.554519, 262.751624)"><g><path d="M 4.046875 0.078125 C 4.046875 0.816406 3.898438 1.421875 3.609375 1.890625 C 3.328125 2.367188 2.890625 2.738281 2.296875 3 L 1.78125 2.21875 C 2.226562 2.007812 2.535156 1.722656 2.703125 1.359375 C 2.867188 1.003906 2.960938 0.550781 2.984375 0 L 1.90625 0 L 1.90625 -2.125 L 4.046875 -2.125 Z M 4.046875 0.078125 "/></g></g></g><g fill="#f3f3f3" fill-opacity="1"><g transform="translate(201.145239, 262.751624)"><g/></g></g><g fill="#f3f3f3" fill-opacity="1"><g transform="translate(210.735958, 262.751624)"><g><path d="M 8.015625 -15.484375 C 9.535156 -15.484375 10.863281 -15.15625 12 -14.5 C 13.144531 -13.851562 14.023438 -12.929688 14.640625 -11.734375 C 15.253906 -10.546875 15.5625 -9.164062 15.5625 -7.59375 C 15.5625 -6.03125 15.242188 -4.65625 14.609375 -3.46875 C 13.984375 -2.28125 13.125 -1.363281 12.03125 -0.71875 C 10.945312 -0.0703125 9.726562 0.25 8.375 0.25 C 6.90625 0.25 5.613281 -0.0859375 4.5 -0.765625 C 3.382812 -1.441406 2.519531 -2.363281 1.90625 -3.53125 C 1.300781 -4.707031 1 -6.003906 1 -7.421875 C 1 -9.035156 1.300781 -10.453125 1.90625 -11.671875 C 2.519531 -12.890625 3.359375 -13.828125 4.421875 -14.484375 C 5.484375 -15.148438 6.679688 -15.484375 8.015625 -15.484375 Z M 3.078125 -7.375 C 3.078125 -6.195312 3.296875 -5.160156 3.734375 -4.265625 C 4.179688 -3.378906 4.796875 -2.691406 5.578125 -2.203125 C 6.367188 -1.710938 7.265625 -1.46875 8.265625 -1.46875 C 9.304688 -1.46875 10.21875 -1.710938 11 -2.203125 C 11.789062 -2.691406 12.398438 -3.394531 12.828125 -4.3125 C 13.265625 -5.238281 13.484375 -6.332031 13.484375 -7.59375 C 13.484375 -8.84375 13.265625 -9.929688 12.828125 -10.859375 C 12.398438 -11.796875 11.796875 -12.515625 11.015625 -13.015625 C 10.234375 -13.515625 9.347656 -13.765625 8.359375 -13.765625 C 6.679688 -13.765625 5.378906 -13.203125 4.453125 -12.078125 C 3.535156 -10.960938 3.078125 -9.394531 3.078125 -7.375 Z M 3.078125 -7.375 "/></g></g></g><g fill="#f3f3f3" fill-opacity="1"><g transform="translate(230.95609, 262.751624)"><g><path d="M 11.71875 -14.234375 C 12.226562 -13.816406 12.609375 -13.3125 12.859375 -12.71875 C 13.117188 -12.132812 13.25 -11.539062 13.25 -10.9375 C 13.25 -9.25 12.644531 -7.972656 11.4375 -7.109375 C 10.632812 -6.503906 9.394531 -6.203125 7.71875 -6.203125 L 3.65625 -6.203125 L 3.65625 0 L 1.640625 0 L 1.640625 -15.21875 L 7.703125 -15.21875 C 8.679688 -15.21875 9.472656 -15.144531 10.078125 -15 C 10.691406 -14.863281 11.238281 -14.609375 11.71875 -14.234375 Z M 11.171875 -10.890625 C 11.171875 -11.203125 11.09375 -11.535156 10.9375 -11.890625 C 10.789062 -12.253906 10.585938 -12.550781 10.328125 -12.78125 C 10.046875 -13.03125 9.71875 -13.203125 9.34375 -13.296875 C 8.976562 -13.390625 8.492188 -13.4375 7.890625 -13.4375 L 3.65625 -13.4375 L 3.65625 -8 L 7.703125 -8 C 8.878906 -8 9.75 -8.234375 10.3125 -8.703125 C 10.882812 -9.171875 11.171875 -9.898438 11.171875 -10.890625 Z M 11.171875 -10.890625 "/></g></g></g><g fill="#f3f3f3" fill-opacity="1"><g transform="translate(248.816492, 262.751624)"><g><path d="M 12.546875 -13.4375 L 7.5 -13.4375 L 7.5 0 L 5.484375 0 L 5.484375 -13.4375 L 0.46875 -13.4375 L 0.46875 -15.21875 L 12.546875 -15.21875 Z M 12.546875 -13.4375 "/></g></g></g><g fill="#f3f3f3" fill-opacity="1"><g transform="translate(265.486402, 262.751624)"><g><path d="M 3.984375 0 L 1.953125 0 L 1.953125 -15.21875 L 3.984375 -15.21875 Z M 3.984375 0 "/></g></g></g><g fill="#f3f3f3" fill-opacity="1"><g transform="translate(275.077121, 262.751624)"><g><path d="M 8.375 -4.0625 C 8.476562 -3.78125 8.675781 -3.15625 8.96875 -2.1875 C 9.125 -2.6875 9.378906 -3.460938 9.734375 -4.515625 L 13.4375 -15.21875 L 16.140625 -15.21875 L 16.140625 0 L 14.203125 0 L 14.203125 -12.734375 L 9.78125 0 L 7.953125 0 L 3.546875 -12.953125 L 3.546875 0 L 1.609375 0 L 1.609375 -15.21875 L 4.65625 -15.21875 Z M 8.375 -4.0625 "/></g></g></g><g fill="#f3f3f3" fill-opacity="1"><g transform="translate(296.46649, 262.751624)"><g><path d="M 3.984375 0 L 1.953125 0 L 1.953125 -15.21875 L 3.984375 -15.21875 Z M 3.984375 0 "/></g></g></g><g fill="#f3f3f3" fill-opacity="1"><g transform="translate(306.05721, 262.751624)"><g><path d="M 12.15625 -13.4375 L 3.421875 -2.640625 L 2.703125 -1.78125 L 12.421875 -1.78125 L 12.421875 0 L 0.375 0 L 0.375 -1.875 L 8.203125 -11.625 C 8.265625 -11.695312 8.457031 -11.929688 8.78125 -12.328125 C 9.101562 -12.722656 9.429688 -13.09375 9.765625 -13.4375 L 1.25 -13.4375 L 1.25 -15.21875 L 12.15625 -15.21875 Z M 12.15625 -13.4375 "/></g></g></g><g fill="#f3f3f3" fill-opacity="1"><g transform="translate(322.727101, 262.751624)"><g><path d="M 12.703125 -13.4375 L 3.703125 -13.4375 L 3.703125 -8.765625 L 12.125 -8.765625 L 12.125 -6.96875 L 3.703125 -6.96875 L 3.703125 -1.78125 L 13.03125 -1.78125 L 13.03125 0 L 1.6875 0 L 1.6875 -15.21875 L 12.703125 -15.21875 Z M 12.703125 -13.4375 "/></g></g></g><g fill="#f3f3f3" fill-opacity="1"><g transform="translate(340.587503, 262.751624)"><g><path d="M 11.140625 -14.4375 C 12.179688 -13.84375 12.96875 -12.960938 13.5 -11.796875 C 14.03125 -10.640625 14.296875 -9.28125 14.296875 -7.71875 C 14.296875 -6.425781 14.101562 -5.21875 13.71875 -4.09375 C 13.332031 -2.976562 12.75 -2.097656 11.96875 -1.453125 C 11.382812 -0.960938 10.738281 -0.597656 10.03125 -0.359375 C 9.320312 -0.117188 8.4375 0 7.375 0 L 1.703125 0 L 1.703125 -15.21875 L 7.234375 -15.21875 C 8.117188 -15.21875 8.851562 -15.164062 9.4375 -15.0625 C 10.03125 -14.957031 10.597656 -14.75 11.140625 -14.4375 Z M 12.203125 -7.734375 C 12.203125 -9.285156 11.960938 -10.484375 11.484375 -11.328125 C 11.003906 -12.171875 10.429688 -12.734375 9.765625 -13.015625 C 9.097656 -13.296875 8.257812 -13.4375 7.25 -13.4375 L 3.71875 -13.4375 L 3.71875 -1.78125 L 7.0625 -1.78125 C 8.050781 -1.78125 8.878906 -1.894531 9.546875 -2.125 C 10.222656 -2.363281 10.832031 -2.921875 11.375 -3.796875 C 11.925781 -4.679688 12.203125 -5.992188 12.203125 -7.734375 Z M 12.203125 -7.734375 "/></g></g></g><g fill="#f3f3f3" fill-opacity="1"><g transform="translate(359.617125, 262.751624)"><g><path d="M 4.015625 0 L 1.890625 0 L 1.890625 -2.125 L 4.015625 -2.125 Z M 4.015625 0 "/></g></g></g></svg>